<svg id="Слой_1" data-name="Слой 1" xmlns="http://www.w3.org/2000/svg" viewBox="0 0 234 50"><defs><style>.cls-1{fill:#3d4b65;}</style></defs><path class="cls-1" d="M65.55.11A24.89,24.89,0,1,0,90.43,25,24.89,24.89,0,0,0,65.55.11Zm1.67,34.75c-.4.59-3.79,4.25-5,5.54a4.4,4.4,0,0,1-2.16,1.31,6.07,6.07,0,0,1-2.54,0,5.44,5.44,0,0,1-2.37-1.46c-.62-.57-3.09-2.8-3.72-3.35a5.61,5.61,0,0,1-1.7-2.21,6.13,6.13,0,0,1-.25-2.52,4.52,4.52,0,0,1,1.08-2.29c1.16-1.33,4.45-5.07,5-5.54a4.79,4.79,0,0,1,4.72-.94,4.55,4.55,0,0,1,1.7,1L59.62,27a.47.47,0,0,1-.32.14,2.67,2.67,0,0,0-2.18.87c-1,1.05-1.93,2.13-2.87,3.22a2.3,2.3,0,0,0-.21,3c.15.22,3.3,3.06,3.53,3.19a2.32,2.32,0,0,0,3-.52c1-1.05,2-2.11,2.9-3.19a2.69,2.69,0,0,0,.65-2.26.45.45,0,0,1,.1-.33c.54-.61,2.12-2.35,2.36-2.63a4.57,4.57,0,0,1,1.13,1.59A4.8,4.8,0,0,1,67.22,34.86Zm.71-15a1.67,1.67,0,0,1,2.28-.06,1.64,1.64,0,0,1,.16,2.27c-.62.75-6.52,7.31-7.21,8a1.63,1.63,0,0,1-2.27.07,1.66,1.66,0,0,1-.18-2.27C61.33,27.16,67.26,20.58,67.93,19.89ZM81.6,17.82a4.44,4.44,0,0,1-1.08,2.29c-1.16,1.33-4.45,5.07-5,5.54a4.79,4.79,0,0,1-4.72.94,4.55,4.55,0,0,1-1.7-1L71.47,23a.47.47,0,0,1,.32-.14A2.67,2.67,0,0,0,74,22c1-1.05,1.93-2.13,2.87-3.22a2.3,2.3,0,0,0,.21-3c-.15-.22-3.29-3.06-3.53-3.19a2.32,2.32,0,0,0-3,.52c-1,1.05-2,2.11-2.9,3.19A2.69,2.69,0,0,0,67,18.57a.45.45,0,0,1-.1.33c-.54.61-2.12,2.35-2.36,2.63a4.57,4.57,0,0,1-1.13-1.59,4.8,4.8,0,0,1,.45-4.8c.4-.59,3.79-4.25,5-5.54A4.4,4.4,0,0,1,71,8.29a6.07,6.07,0,0,1,2.54,0,5.53,5.53,0,0,1,2.38,1.46c.61.57,3.08,2.8,3.71,3.35a5.61,5.61,0,0,1,1.7,2.21A6.13,6.13,0,0,1,81.6,17.82Z"/><path class="cls-1" d="M102,20.64A5.3,5.3,0,0,1,98,19a5.68,5.68,0,0,1-1.55-4.16,6.13,6.13,0,0,1,1.57-4.39,5.45,5.45,0,0,1,4.17-1.68,5.2,5.2,0,0,1,4,1.61,5.91,5.91,0,0,1,1.51,4.22A6,6,0,0,1,106.12,19,5.38,5.38,0,0,1,102,20.64Zm.11-9.61a2.59,2.59,0,0,0-2.15,1,4.24,4.24,0,0,0-.8,2.69,4.19,4.19,0,0,0,.8,2.69,2.75,2.75,0,0,0,4.2,0,4.09,4.09,0,0,0,.79-2.67,4.49,4.49,0,0,0-.76-2.77A2.48,2.48,0,0,0,102.14,11Z"/><path class="cls-1" d="M120.55,15.49q0,5.15-4.81,5.15c-3.1,0-4.66-1.68-4.66-5V9h2.59v6.64c0,1.85.72,2.78,2.17,2.78s2.13-.9,2.13-2.68V9h2.58Z"/><path class="cls-1" d="M132.7,11.1h-3.26v9.34h-2.58V11.1h-3.25V9h9.09Z"/><path class="cls-1" d="M145.47,20.44h-3l-1.77-2.94c-.14-.22-.26-.42-.39-.6a3.42,3.42,0,0,0-.37-.45,1.52,1.52,0,0,0-.39-.29,1.05,1.05,0,0,0-.44-.1h-.7v4.38h-2.57V9H140q4.17,0,4.17,3.11a3.08,3.08,0,0,1-.19,1.11,2.84,2.84,0,0,1-.52.91,3.28,3.28,0,0,1-.81.71,4.17,4.17,0,0,1-1.05.46v0a1.55,1.55,0,0,1,.49.26,3,3,0,0,1,.46.42,5.27,5.27,0,0,1,.43.51c.14.19.26.37.37.54Zm-7-9.51v3.19h1.12a1.84,1.84,0,0,0,1.33-.48,1.62,1.62,0,0,0,.51-1.21c0-1-.59-1.5-1.79-1.5Z"/><path class="cls-1" d="M155,20.44h-6.86V9h6.6v2.1h-4v2.55h3.75v2.09h-3.75v2.61H155Z"/><path class="cls-1" d="M168.8,20.44H166l-.81-2.54h-4.07l-.81,2.54h-2.79L161.67,9h3.06Zm-4.21-4.52-1.23-3.85a4.53,4.53,0,0,1-.19-1h-.07a3.87,3.87,0,0,1-.2,1l-1.24,3.88Z"/><path class="cls-1" d="M179.81,20a7.58,7.58,0,0,1-3.27.6,5.53,5.53,0,0,1-4.14-1.54A5.7,5.7,0,0,1,170.89,15a6,6,0,0,1,1.7-4.45A5.93,5.93,0,0,1,177,8.81a8.22,8.22,0,0,1,2.82.42v2.49A4.94,4.94,0,0,0,177.2,11a3.48,3.48,0,0,0-2.6,1,3.77,3.77,0,0,0-1,2.75,3.7,3.7,0,0,0,.93,2.64,3.28,3.28,0,0,0,2.51,1,5.33,5.33,0,0,0,2.76-.74Z"/><path class="cls-1" d="M193.34,20.44h-2.58V15.78H186v4.66h-2.58V9H186v4.57h4.74V9h2.58Z"/><path class="cls-1" d="M113.69,41h-6.81V29.55h2.58V38.9h4.23Z"/><path class="cls-1" d="M119.44,41h-2.57V29.55h2.57Z"/><path class="cls-1" d="M134,41h-2.6l-4.72-7.19c-.27-.42-.46-.74-.57-.95h0c0,.41.06,1,.06,1.85V41h-2.43V29.55h2.77l4.54,7c.21.32.4.63.58.94h0a13.13,13.13,0,0,1-.06-1.58V29.55H134Z"/><path class="cls-1" d="M147.73,41h-3.25l-3.34-5a6.81,6.81,0,0,1-.3-.63h0V41h-2.58V29.55h2.58V35h0c.06-.15.17-.36.32-.64l3.16-4.77h3.07l-4,5.46Z"/><path class="cls-1" d="M149.93,40.55V38a4.79,4.79,0,0,0,1.51.87,4.93,4.93,0,0,0,1.64.29,3.52,3.52,0,0,0,.85-.09,1.9,1.9,0,0,0,.61-.24,1.06,1.06,0,0,0,.36-.37A.9.9,0,0,0,155,38a1,1,0,0,0-.19-.59,2,2,0,0,0-.52-.49,5.73,5.73,0,0,0-.79-.43c-.3-.14-.63-.28-1-.42a5.11,5.11,0,0,1-2-1.37,3,3,0,0,1-.66-1.94,3,3,0,0,1,1.34-2.6,4.51,4.51,0,0,1,1.43-.61,7.37,7.37,0,0,1,1.72-.19,10.73,10.73,0,0,1,1.59.1,6.73,6.73,0,0,1,1.27.34v2.38a3.8,3.8,0,0,0-.63-.35,5.13,5.13,0,0,0-.69-.25,4.61,4.61,0,0,0-.72-.15,5.29,5.29,0,0,0-.67-.05,3.32,3.32,0,0,0-.8.09,2,2,0,0,0-.61.23,1.12,1.12,0,0,0-.38.37.84.84,0,0,0-.14.47.91.91,0,0,0,.16.51,1.62,1.62,0,0,0,.43.44,4.56,4.56,0,0,0,.68.39c.26.13.56.27.9.41a9.4,9.4,0,0,1,1.23.61,4.36,4.36,0,0,1,.94.73,2.86,2.86,0,0,1,.6.93,3.45,3.45,0,0,1,.2,1.21,3.28,3.28,0,0,1-.36,1.61,2.85,2.85,0,0,1-1,1,4,4,0,0,1-1.44.58,8.24,8.24,0,0,1-1.75.18A9.46,9.46,0,0,1,151.4,41,5.77,5.77,0,0,1,149.93,40.55Z"/><path class="cls-1" d="M179.57,29.56a3.25,3.25,0,0,1,1.76.54,4.42,4.42,0,0,1,1.24,1.36,4.05,4.05,0,0,1,.37,2c0,.61,0,3,0,3.64a4.07,4.07,0,0,1-.37,2,4.42,4.42,0,0,1-1.24,1.36,3.24,3.24,0,0,1-1.76.53c-1.28,0-4.9.07-5.42,0A3.58,3.58,0,0,1,171,37.5h2.57a.33.33,0,0,1,.23.1,1.93,1.93,0,0,0,1.53.75c1,0,2.09,0,3.14,0A1.69,1.69,0,0,0,180.22,37c0-.19,0-3.27,0-3.46a1.68,1.68,0,0,0-1.72-1.34c-1.05,0-2.09,0-3.14,0a1.94,1.94,0,0,0-1.53.76.33.33,0,0,1-.23.1H171a3.42,3.42,0,0,1,.31-1.39,3.47,3.47,0,0,1,2.81-2.09C174.67,29.5,178.29,29.54,179.57,29.56Z"/><path class="cls-1" d="M167.84,34.08a1.18,1.18,0,0,0-1.14,1.19,1.21,1.21,0,0,0,1.14,1.2c.7,0,7.14,0,7.84,0a1.21,1.21,0,0,0,1.14-1.2,1.18,1.18,0,0,0-1.14-1.19C175,34.05,168.55,34.05,167.84,34.08Z"/></svg>